<?xml version="1.0" encoding="UTF-8" standalone="no"?>
<svg width="100px" height="100px" viewBox="0 0 100 100" version="1.1" xmlns="http://www.w3.org/2000/svg" xmlns:xlink="http://www.w3.org/1999/xlink" xmlns:sketch="http://www.bohemiancoding.com/sketch/ns">
    <!-- Generator: Sketch 3.3.2 (12043) - http://www.bohemiancoding.com/sketch -->
    <title>wifi-3-bar</title>
    <desc>Created with Sketch.</desc>
    <defs>
        <rect id="path-1" x="0" y="0" width="90" height="92.25"></rect>
    </defs>
    <g id="Page-1" stroke="none" stroke-width="1" fill="none" fill-rule="evenodd" sketch:type="MSPage">
        <g id="wifi-3-bar" sketch:type="MSArtboardGroup">
            <g sketch:type="MSLayerGroup" transform="translate(5.000000, 5.000000)">
                <mask id="mask-2" sketch:name="Mask" fill="white">
                    <use xlink:href="#path-1"></use>
                </mask>
                <use id="Mask" sketch:type="MSShapeGroup" xlink:href="#path-1"></use>
                <g id="Shape-+-Shape-+-Shape" mask="url(#mask-2)" fill="#000000" sketch:type="MSShapeGroup">
                    <g transform="translate(-90.000000, 0.000000)" id="Shape">
                        <path d="M90,108 L90,108 C80.0588745,108 72,99.9411255 72,90 C72,80.0588745 80.0588745,72 90,72 C99.9411255,72 108,80.0588745 108,90 C108,99.9411255 99.9411255,108 90,108 L90,108 Z"></path>
                        <path d="M90,126 C109.882251,126 126,109.882251 126,90 C126,70.117749 109.882251,54 90,54 C70.117749,54 54,70.117749 54,90 C54,109.882251 70.117749,126 90,126 L90,126 Z M90,144 L90,144 C60.1766235,144 36,119.823376 36,90 C36,60.1766235 60.1766235,36 90,36 C119.823376,36 144,60.1766235 144,90 C144,119.823376 119.823376,144 90,144 L90,144 Z"></path>
                        <path d="M90,162 C129.764502,162 162,129.764502 162,90 C162,50.235498 129.764502,18 90,18 C50.235498,18 18,50.235498 18,90 C18,129.764502 50.235498,162 90,162 L90,162 Z M90,180 L90,180 C40.2943725,180 0,139.705627 0,90 C0,40.2943725 40.2943725,0 90,0 C139.705627,0 180,40.2943725 180,90 C180,139.705627 139.705627,180 90,180 L90,180 Z"></path>
                    </g>
                </g>
            </g>
        </g>
    </g>
</svg>